<?xml version="1.0" encoding="utf-8"?>
<!-- Generator: Adobe Illustrator 24.1.1, SVG Export Plug-In . SVG Version: 6.00 Build 0)  -->
<svg version="1.1" id="Layer_1" xmlns="http://www.w3.org/2000/svg" xmlns:xlink="http://www.w3.org/1999/xlink" x="0px" y="0px"
 style="enable-background:new 0 0 40 80;" xml:space="preserve">
<circle style="fill:none;stroke:#FFFFFF;stroke-width:2;stroke-miterlimit:10;" cx="22" cy="24.9" r="7.3"/>
<path style="fill:none;stroke:#FFFFFF;stroke-width:2;stroke-miterlimit:10;" d="M17.4,26.6c0.3,0.4,0.7,0.9,1.4,1.5
	c0.6,0.4,1.5,1.1,2.8,1.2c1.7,0,2.9-1.1,3.2-1.4c1.1-1.1,1.4-2.5,1.5-2.9"/>
<path style="fill:none;stroke:#FFFFFF;stroke-width:2;stroke-miterlimit:10;" d="M18.8,22.2c0.2,0.4,0.8,2,0.7,1.9L19,22.6"/>
<polyline style="fill:none;stroke:FFFFFF;stroke-width:2;stroke-miterlimit:10;" points="19.2,23.1 20,22.7 18.4,23.5 "/>
<polygon style="fill:none;stroke:#FFFFFF;stroke-width:2;stroke-miterlimit:10;" points="21.8,22.2 22.8,22.1 23.3,21.2 
	23.7,22.1 24.6,22.3 23.9,23 24,24 23.1,23.5 22.2,23.9 22.5,22.9 "/>
</svg>
